<svg width="19" height="17" viewBox="0 0 19 17" fill="none" xmlns="http://www.w3.org/2000/svg">
<path d="M4.59037 13.6311C5.06896 13.2745 5.68853 13.1834 6.24503 13.3883C7.22818 13.7525 8.33005 13.9612 9.50241 13.9612C14.1288 13.9612 17.2192 10.9072 17.2192 7.8911C17.2192 4.87503 14.1288 1.82102 9.50241 1.82102C4.87604 1.82102 1.78561 4.87503 1.78561 7.8911C1.78561 9.10511 2.24565 10.2736 3.11008 11.2752C3.42914 11.6432 3.58496 12.1288 3.54786 12.622C3.49592 13.3086 3.33639 13.9384 3.12863 14.4961C3.75933 14.1964 4.28244 13.8625 4.59037 13.6349V13.6311ZM0.79133 15.1714C0.85811 15.069 0.92118 14.9665 0.98054 14.8641C1.35154 14.2343 1.70399 13.4073 1.77448 12.4778C0.66148 11.1841 0.0048102 9.6021 0.0048102 7.8911C0.0048102 3.53202 4.25647 0 9.50241 0C14.7483 0 19 3.53202 19 7.8911C19 12.2502 14.7483 15.7822 9.50241 15.7822C8.126 15.7822 6.82008 15.5394 5.6403 15.1031C5.19881 15.4332 4.47907 15.8846 3.62577 16.264C3.06556 16.5144 2.42744 16.742 1.76706 16.8748C1.73738 16.8824 1.7077 16.8862 1.67802 16.8938C1.51478 16.9241 1.35525 16.9507 1.1883 16.9659C1.18088 16.9659 1.16975 16.9696 1.16233 16.9696C0.97312 16.9886 0.78391 17 0.5947 17C0.35355 17 0.13837 16.852 0.0456202 16.6244C-0.0471298 16.3968 0.00481019 16.1388 0.17176 15.9643C0.32387 15.805 0.46114 15.6342 0.59099 15.4521C0.65406 15.3649 0.71342 15.2776 0.76907 15.1904C0.77278 15.1828 0.77649 15.179 0.7802 15.1714H0.79133Z" fill="#1B1B1B"/>
</svg>
