<svg width="25" height="18" viewBox="0 0 25 18" fill="none" xmlns="http://www.w3.org/2000/svg">
<path d="M11.97 10.49C13.77 10.49 15.23 9.02997 15.23 7.22997C15.23 5.42997 13.77 3.96997 11.97 3.96997C10.17 3.96997 8.71002 5.42997 8.71002 7.22997C8.71002 9.02997 10.17 10.49 11.97 10.49ZM10.81 11.71C8.30002 11.71 6.27002 13.74 6.27002 16.25C6.27002 16.67 6.61002 17.01 7.03002 17.01H16.93C17.35 17.01 17.69 16.67 17.69 16.25C17.69 13.74 15.66 11.71 13.15 11.71H10.82H10.81Z" fill="#1B1B1B"/>
<path d="M19.57 11.95C20.97 11.95 22.1 10.82 22.1 9.42001C22.1 8.02001 20.97 6.89001 19.57 6.89001C18.17 6.89001 17.04 8.02001 17.04 9.42001C17.04 10.82 18.17 11.95 19.57 11.95ZM18.67 12.9C16.72 12.9 15.14 14.48 15.14 16.43C15.14 16.75 15.4 17.02 15.73 17.02H23.42C23.74 17.02 24.01 16.76 24.01 16.43C24.01 14.48 22.43 12.9 20.48 12.9H18.67Z" fill="#1B1B1B"/>
<path d="M4.43 11.95C5.83 11.95 6.96 10.82 6.96 9.42001C6.96 8.02001 5.83 6.89001 4.43 6.89001C3.03 6.89001 1.9 8.02001 1.9 9.42001C1.9 10.82 3.03 11.95 4.43 11.95ZM3.53 12.9C1.58 12.9 0 14.48 0 16.43C0 16.75 0.26 17.02 0.59 17.02H8.28C8.6 17.02 8.87 16.76 8.87 16.43C8.87 14.48 7.29 12.9 5.34 12.9H3.53Z" fill="#1B1B1B"/>
<path d="M11.97 1V2.91" stroke="#1B1B1B" stroke-width="0.38" stroke-linecap="round" stroke-linejoin="round"/>
<path d="M15.74 1.84009L14.51 3.30009" stroke="#1B1B1B" stroke-width="0.38" stroke-linecap="round" stroke-linejoin="round"/>
<path d="M8.19995 1.84998L9.42995 3.30998" stroke="#1B1B1B" stroke-width="0.38" stroke-linecap="round" stroke-linejoin="round"/>
</svg>
