<svg width="17" height="16" viewBox="0 0 17 16" fill="none" xmlns="http://www.w3.org/2000/svg">
<path d="M9.09593 0.562437C8.93126 0.218726 8.58328 0 8.20112 0C7.81896 0 7.47408 0.218726 7.3063 0.562437L5.3085 4.69635L0.846857 5.35878C0.474017 5.41502 0.163318 5.67749 0.0483587 6.03682C-0.0666002 6.39616 0.0266097 6.79299 0.293811 7.05859L3.5313 10.2801L2.76698 14.8327C2.70484 15.2077 2.86019 15.5889 3.16778 15.8107C3.47538 16.0326 3.88239 16.0607 4.21795 15.8826L8.20423 13.7422L12.1905 15.8826C12.5261 16.0607 12.9331 16.0357 13.2407 15.8107C13.5483 15.5858 13.7036 15.2077 13.6415 14.8327L12.874 10.2801L16.1115 7.05859C16.3787 6.79299 16.4751 6.39616 16.357 6.03682C16.2389 5.67749 15.9313 5.41502 15.5585 5.35878L11.0937 4.69635L9.09593 0.562437Z" fill="#1B1B1B"/>
</svg>
