<svg width="27" height="14" viewBox="0 0 27 14" fill="none" xmlns="http://www.w3.org/2000/svg">
<path d="M13.1478 6.81267C15.0286 6.81267 16.5541 5.28713 16.5541 3.40633C16.5541 1.52554 15.0286 0 13.1478 0C11.267 0 9.74142 1.52554 9.74142 3.40633C9.74142 5.28713 11.267 6.81267 13.1478 6.81267ZM11.9357 8.08743C9.31302 8.08743 7.19189 10.2086 7.19189 12.8312C7.19189 13.2701 7.54716 13.6253 7.98601 13.6253H18.3304C18.7692 13.6253 19.1245 13.2701 19.1245 12.8312C19.1245 10.2086 17.0034 8.08743 14.3807 8.08743H11.9461H11.9357Z" fill="#1B1B1B"/>
<path d="M7.54198 4.42855C7.54198 5.617 6.57852 6.58209 5.37327 6.58209C4.16802 6.58209 3.20456 5.617 3.20456 4.42855C3.20456 3.24009 4.16802 2.275 5.37327 2.275C6.57852 2.275 7.54198 3.24009 7.54198 4.42855ZM9.85347 12.7013H0.905201C1.00317 10.936 2.47301 9.52868 4.28163 9.52868H6.47703C8.28566 9.52868 9.7555 10.936 9.85347 12.7013Z" stroke="#1B1B1B" stroke-width="1.8"/>
<path d="M22.9251 4.43386C22.9251 5.62946 21.9618 6.59273 20.7662 6.59273C19.5706 6.59273 18.6073 5.62946 18.6073 4.43386C18.6073 3.23827 19.5706 2.275 20.7662 2.275C21.9618 2.275 22.9251 3.23827 22.9251 4.43386ZM25.2292 12.7225H16.3152C16.412 10.9489 17.8801 9.54131 19.6781 9.54131H21.8664C23.6643 9.54131 25.1324 10.9489 25.2292 12.7225Z" stroke="#1B1B1B" stroke-width="1.8"/>
</svg>
