<svg width="320" height="512" viewBox="0 0 320 512" fill="none" xmlns="http://www.w3.org/2000/svg">
<g clip-path="url(#clip0_38_2)">
<path d="M137.4 41.4C149.9 28.9 170.2 28.9 182.7 41.4L310.7 169.4C319.9 178.6 322.6 192.3 317.6 204.3C312.6 216.3 301 224.1 288 224.1H32C19.1 224.1 7.40001 216.3 2.40001 204.3C-2.59999 192.3 0.200006 178.6 9.30001 169.4L137.3 41.4H137.4ZM137.4 470.7L9.40001 342.7C0.200006 333.5 -2.49999 319.8 2.50001 307.8C7.50001 295.8 19.1 288 32.1 288H288C300.9 288 312.6 295.8 317.6 307.8C322.6 319.8 319.8 333.5 310.7 342.7L182.7 470.7C170.2 483.2 149.9 483.2 137.4 470.7Z" fill="#D9D9D9"/>
</g>
<defs>
<clipPath id="clip0_38_2">
<rect width="320" height="512" fill="white"/>
</clipPath>
</defs>
</svg>
