<svg width="24" height="15" viewBox="0 0 24 15" fill="none" xmlns="http://www.w3.org/2000/svg">
<path d="M10.2075 0.0224999L8.29125 1.93875C7.7175 2.09625 7.185 2.385 6.735 2.7825L5.7375 3.67125C5.355 4.0125 4.85625 4.2 4.3425 4.2H3.6V9C4.365 9.0225 5.0925 9.33375 5.63625 9.8775L6.97125 11.2125L7.23375 11.475L8.24625 12.4875C8.47875 12.72 8.86125 12.72 9.09375 12.4875C9.1575 12.4238 9.20625 12.3488 9.2325 12.27C9.3375 11.9813 9.58125 11.7638 9.88125 11.6963C10.1813 11.6288 10.4963 11.7188 10.7138 11.94L11.1188 12.3375C11.5538 12.7725 12.2588 12.7725 12.69 12.3375C12.8925 12.135 13.0013 11.8763 13.0125 11.61C13.0275 11.28 13.2225 10.9875 13.5225 10.845C13.8225 10.7025 14.1713 10.7325 14.4375 10.9237C14.79 11.175 15.2813 11.1413 15.5963 10.8263C15.9488 10.4738 15.9488 9.90375 15.5963 9.555L12.7538 6.7125L11.4112 7.95C10.3875 8.895 8.81625 8.91 7.77375 7.98375C6.585 6.92625 6.55875 5.08125 7.71375 3.99L10.3425 1.5075C11.37 0.54 12.7275 0 14.1413 0C15.495 0 16.8038 0.49875 17.8125 1.395L18.9413 2.4H20.4H21.9H23.4C23.73 2.4 24 2.67 24 3V10.8C24 11.4638 23.4638 12 22.8 12H21.6C21.1575 12 20.7675 11.76 20.5613 11.4H17.3775C17.25 11.6513 17.0813 11.8913 16.8713 12.1013C16.23 12.7425 15.3413 12.9938 14.5088 12.855C14.3738 13.1288 14.19 13.3838 13.9613 13.6125C12.9375 14.6363 11.3363 14.7375 10.1963 13.9163C9.255 14.6963 7.8525 14.6475 6.97125 13.7625L5.9625 12.75L5.7 12.4875L4.365 11.1525C4.15875 10.9463 3.88875 10.8263 3.6 10.8038C3.6 11.4638 3.06 12 2.4 12H1.2C0.53625 12 0 11.4638 0 10.8V3C0 2.67 0.27 2.4 0.6 2.4H2.1H3.6H4.3425C4.4175 2.4 4.48875 2.37375 4.54125 2.325L5.535 1.44C6.58125 0.51375 7.9275 0 9.32625 0H9.7125C9.8775 0 10.0463 0.00749994 10.2075 0.0224999ZM20.4 9.6V4.2H18.6C18.3788 4.2 18.165 4.1175 18.0038 3.97125L16.62 2.74125C15.9375 2.13375 15.0563 1.8 14.1413 1.8C13.1888 1.8 12.2738 2.16375 11.58 2.81625L8.95125 5.29875C8.565 5.66625 8.5725 6.285 8.97 6.6375C9.31875 6.94875 9.8475 6.94125 10.1888 6.62625L12.885 4.13625C13.2488 3.79875 13.8188 3.82125 14.1563 4.18875C14.4938 4.55625 14.4713 5.1225 14.1038 5.46L14.0738 5.49L16.8638 8.28C17.2388 8.655 17.4825 9.11625 17.5913 9.59625H20.4V9.6ZM2.4 10.2C2.4 10.0409 2.33679 9.88826 2.22426 9.77574C2.11174 9.66321 1.95913 9.6 1.8 9.6C1.64087 9.6 1.48826 9.66321 1.37574 9.77574C1.26321 9.88826 1.2 10.0409 1.2 10.2C1.2 10.3591 1.26321 10.5117 1.37574 10.6243C1.48826 10.7368 1.64087 10.8 1.8 10.8C1.95913 10.8 2.11174 10.7368 2.22426 10.6243C2.33679 10.5117 2.4 10.3591 2.4 10.2ZM22.2 10.8C22.3591 10.8 22.5117 10.7368 22.6243 10.6243C22.7368 10.5117 22.8 10.3591 22.8 10.2C22.8 10.0409 22.7368 9.88826 22.6243 9.77574C22.5117 9.66321 22.3591 9.6 22.2 9.6C22.0409 9.6 21.8883 9.66321 21.7757 9.77574C21.6632 9.88826 21.6 10.0409 21.6 10.2C21.6 10.3591 21.6632 10.5117 21.7757 10.6243C21.8883 10.7368 22.0409 10.8 22.2 10.8Z" fill="#1B1B1B"/>
</svg>
